<?xml version="1.0" encoding="UTF-8" standalone="no"?>
<!-- Created with Inkscape (http://www.inkscape.org/) -->

<svg
   xmlns:dc="http://purl.org/dc/elements/1.1/"
   xmlns:cc="http://creativecommons.org/ns#"
   xmlns:rdf="http://www.w3.org/1999/02/22-rdf-syntax-ns#"
   xmlns:svg="http://www.w3.org/2000/svg"
   xmlns="http://www.w3.org/2000/svg"
   xmlns:sodipodi="http://sodipodi.sourceforge.net/DTD/sodipodi-0.dtd"
   xmlns:inkscape="http://www.inkscape.org/namespaces/inkscape"
   width="422.31"
   height="422.31"
   id="svg2"
   version="1.1"
   inkscape:version="0.48.5 r10040"
   sodipodi:docname="New document 1">
  <defs
     id="defs4" />
  <sodipodi:namedview
     id="base"
     pagecolor="#ffffff"
     bordercolor="#666666"
     borderopacity="1.0"
     inkscape:pageopacity="0.0"
     inkscape:pageshadow="2"
     inkscape:zoom="0.35"
     inkscape:cx="208.07784"
     inkscape:cy="168.64287"
     inkscape:document-units="px"
     inkscape:current-layer="layer1"
     showgrid="false"
     fit-margin-top="0"
     fit-margin-left="0"
     fit-margin-right="0"
     fit-margin-bottom="0"
     inkscape:window-width="1020"
     inkscape:window-height="729"
     inkscape:window-x="0"
     inkscape:window-y="18"
     inkscape:window-maximized="0" />
  <metadata
     id="metadata7">
    <rdf:RDF>
      <cc:Work
         rdf:about="">
        <dc:format>image/svg+xml</dc:format>
        <dc:type
           rdf:resource="http://purl.org/dc/dcmitype/StillImage" />
        <dc:title></dc:title>
      </cc:Work>
    </rdf:RDF>
  </metadata>
  <g
     inkscape:label="Layer 1"
     inkscape:groupmode="layer"
     id="layer1"
     transform="translate(-166.92216,-278.69505)">
    <path
       style="fill:#000000"
       d="m 217.7857,700.52788 c 0,-0.26245 1.10268,-3.40674 2.45041,-6.98731 6.46657,-17.1801 18.0746,-30.89909 30.97181,-36.60414 2.79116,-1.23466 8.51514,-2.45593 13.91028,-2.96791 14.7614,-1.40078 17.90709,-2.91471 32.57671,-15.6783 4.62506,-4.02413 11.36559,-8.77203 14.97896,-10.55089 6.09595,-3.00102 7.29249,-3.23264 16.59079,-3.21158 9.01044,0.0204 11.73543,0.52079 27.02103,4.96172 14.57373,4.23412 18.21314,4.93402 25.5,4.90397 10.77712,-0.0444 15.6228,-1.87916 33.23379,-12.58328 15.88902,-9.6575 19.88833,-11.46674 28.327,-12.81482 8.6927,-1.38867 17.98171,0.15894 27.29876,4.54814 8.29735,3.90883 12.96479,7.25174 21.64045,15.49933 14.4101,13.69908 25.02607,20.21294 39.20851,24.05796 10.43698,2.82958 16.49981,6.25763 22.30934,12.61418 7.28236,7.96807 12.92126,21.90079 12.96737,32.0401 l 0.0148,3.25 -174.5,0 c -95.97499,0 -174.49999,-0.21473 -174.49999,-0.47717 z m 58.92255,-77.15576 c -13.66443,-31.56808 -19.92255,-47.53638 -19.92255,-50.83466 0,-4.21322 3.01463,-10.22644 6.31768,-12.60179 1.20028,-0.86316 14.78232,-6.89082 30.18232,-13.39478 15.4,-6.50397 28.40157,-12.18433 28.8924,-12.62303 0.50212,-0.44879 -3.59869,-10.55357 -9.37678,-23.10522 -9.80568,-21.30076 -32.97036,-74.79927 -34.45709,-79.57821 -0.43184,-1.38809 -2.71819,-3.27815 -5.88246,-4.86286 -27.36288,-13.70372 -52.04703,-36.46496 -68.76224,-63.40563 -8.73362,-14.07637 -11.22434,-20.20303 -10.71419,-26.35475 0.54011,-6.51299 3.35426,-12.13564 7.87075,-15.72568 1.88628,-1.49936 24.35461,-11.60191 49.92961,-22.45011 41.399,-17.5603 47.10334,-19.72527 52,-19.73552 11.23524,-0.0235 18.33952,6.25815 22.49856,19.89349 10.4627,34.30184 11.1339,66.88522 2.07863,100.90706 l -2.49479,9.37326 6.32674,14.38671 c 14.63624,33.28208 39.1036,96.01913 48.06524,123.24465 8.17828,24.84565 10.04768,33.11405 8.63764,38.20453 -4.01493,14.4946 -22.67111,19.13044 -32.76934,8.14279 -1.18652,-1.29103 -5.55903,-8.42232 -9.7167,-15.84732 -4.15766,-7.425 -8.06201,-13.37495 -8.67634,-13.22212 -1.61988,0.40301 -41.30537,17.24452 -41.7995,17.73865 -0.22879,0.22878 2.1485,6.38377 5.28285,13.67775 3.62416,8.43382 5.28116,13.401 4.55155,13.64421 -2.26684,0.75561 -15.59003,10.26034 -20.71989,14.78151 l -5.23536,4.61415 -2.10674,-4.86708 z m 18.93157,-232.27753 c 4.81643,-17.57475 6.38022,-39.05741 4.05946,-55.76718 -0.59753,-4.3023 -1.20338,-7.94071 -1.34634,-8.08537 -0.35397,-0.35816 -59.85621,24.81196 -60.89085,25.75752 -2.21358,2.02301 21.17073,25.97455 34.05592,34.88201 5.98377,4.13654 18.7541,11.10854 20.3608,11.11604 1.14241,0.005 2.20644,-2.23052 3.76101,-7.90302 z m 184.55992,204.98524 c -7.45377,-3.79124 -17.20479,-6.58491 -26.42079,-7.56956 l -5.50673,-0.58835 -9.39099,-22.20843 c -5.16505,-12.21464 -10.3698,-24.45844 -11.56611,-27.20844 -1.19631,-2.75 -2.75943,-6.4625 -3.47359,-8.25 -1.45349,-3.63798 -1.4185,-3.61699 -3.81941,-2.29097 -1.7048,0.94157 -16.67022,7.44975 -20.87924,9.08 -2.01478,0.78037 -2.4504,-0.064 -7.29126,-14.13325 -2.83166,-8.22977 -4.91256,-15.34492 -4.62424,-15.81144 0.28833,-0.46652 3.1194,-1.88325 6.29127,-3.14828 3.17187,-1.26503 11.84204,-4.95319 19.26704,-8.19591 14.47972,-6.32373 20.11829,-7.2917 25.69036,-4.41027 5.38905,2.78678 6.33184,4.53716 19.74594,36.66012 3.10058,7.425 6.05578,14.4 6.56712,15.5 0.51134,1.1 3.66797,8.525 7.01473,16.5 3.34677,7.975 6.48474,15.4 6.97327,16.5 2.2284,5.0175 8.30429,19.22389 9.08837,21.25 1.06931,2.7632 1.05371,2.75979 -7.66574,-1.67522 z"
       id="path3220"
       inkscape:connector-curvature="0" />
  </g>
</svg>
