<?xml version="1.0" encoding="UTF-8" standalone="no"?>
<svg
   xmlns:dc="http://purl.org/dc/elements/1.1/"
   xmlns:cc="http://creativecommons.org/ns#"
   xmlns:rdf="http://www.w3.org/1999/02/22-rdf-syntax-ns#"
   xmlns:svg="http://www.w3.org/2000/svg"
   xmlns="http://www.w3.org/2000/svg"
   xmlns:sodipodi="http://sodipodi.sourceforge.net/DTD/sodipodi-0.dtd"
   xmlns:inkscape="http://www.inkscape.org/namespaces/inkscape"
   color-rendering="auto"
   color-interpolation="auto"
   text-rendering="auto"
   stroke-miterlimit="10"
   shape-rendering="auto"
   font-weight="normal"
   font-style="normal"
   font-size="12"
   image-rendering="auto"
   id="svg2"
   version="1.1"
   inkscape:version="0.48.5 r10040"
   width="196.4532"
   height="196.4532"
   sodipodi:docname="sink.svg"
   style="font-size:12px;font-style:normal;font-weight:normal;fill:#000000;fill-opacity:1;stroke:#000000;stroke-width:1;stroke-linecap:square;stroke-linejoin:miter;stroke-miterlimit:10;stroke-opacity:1;stroke-dasharray:none;stroke-dashoffset:0;font-family:Dialog">
  <metadata
     id="metadata13">
    <rdf:RDF>
      <cc:Work
         rdf:about="">
        <dc:format>image/svg+xml</dc:format>
        <dc:type
           rdf:resource="http://purl.org/dc/dcmitype/StillImage" />
      </cc:Work>
    </rdf:RDF>
  </metadata>
  <sodipodi:namedview
     pagecolor="#ffffff"
     bordercolor="#666666"
     borderopacity="1"
     objecttolerance="10"
     gridtolerance="10"
     guidetolerance="10"
     inkscape:pageopacity="0"
     inkscape:pageshadow="2"
     inkscape:window-width="1020"
     inkscape:window-height="729"
     id="namedview11"
     showgrid="false"
     fit-margin-top="0"
     fit-margin-left="0"
     fit-margin-right="0"
     fit-margin-bottom="0"
     inkscape:zoom="0.22425739"
     inkscape:cx="355.03164"
     inkscape:cy="-115.83729"
     inkscape:window-x="0"
     inkscape:window-y="18"
     inkscape:window-maximized="0"
     inkscape:current-layer="svg2" />
  <!--Unicode Character 'CIRCLED TIMES' (U+2297)-->
  <defs
     id="genericDefs" />
  <g
     id="g5"
     transform="translate(-17.0156,-213.8906)">
    <g
       id="g7">
      <path
         d="m 213.4688,312.1875 q 0,40.6406 -28.8282,69.3984 -28.8281,28.7579 -69.4687,28.7579 -40.6407,0 -69.3985,-28.7579 -28.7578,-28.7578 -28.7578,-69.3984 0,-40.6406 28.7578,-69.4687 28.7578,-28.8282 69.3985,-28.8282 40.6406,0 69.4687,28.8282 28.8282,28.8281 28.8282,69.4687 z m -43.875,-64.2656 q -23.3438,-20.1094 -54.4219,-20.1094 -31.0781,0 -54.4219,20.1094 l 54.4219,54.4219 54.4219,-54.4219 z m 29.9531,64.2656 q 0,-31.0781 -20.1094,-54.4219 l -54.4219,54.4219 54.4219,54.4219 q 20.1094,-23.3438 20.1094,-54.4219 z m -94.0781,0 -54.5626,-54.4219 q -20.1093,23.3438 -20.1093,54.4219 0,31.0781 20.1093,54.4219 l 54.5626,-54.4219 z m 64.125,64.125 -54.4219,-54.4219 -54.4219,54.4219 q 23.4844,20.25 54.4219,20.25 30.9375,0 54.4219,-20.25 z"
         id="path9"
         inkscape:connector-curvature="0"
         style="stroke:none" />
    </g>
  </g>
</svg>
