<?xml version="1.0" encoding="UTF-8" standalone="no"?>
<svg
   xmlns:dc="http://purl.org/dc/elements/1.1/"
   xmlns:cc="http://creativecommons.org/ns#"
   xmlns:rdf="http://www.w3.org/1999/02/22-rdf-syntax-ns#"
   xmlns:svg="http://www.w3.org/2000/svg"
   xmlns="http://www.w3.org/2000/svg"
   xmlns:sodipodi="http://sodipodi.sourceforge.net/DTD/sodipodi-0.dtd"
   xmlns:inkscape="http://www.inkscape.org/namespaces/inkscape"
   color-rendering="auto"
   color-interpolation="auto"
   text-rendering="auto"
   stroke-miterlimit="10"
   shape-rendering="auto"
   font-weight="normal"
   font-style="normal"
   font-size="12"
   image-rendering="auto"
   id="svg2"
   version="1.1"
   inkscape:version="0.48.5 r10040"
   width="255.75999"
   height="255.75999"
   sodipodi:docname="rainoff.svg"
   style="font-size:12px;font-style:normal;font-weight:normal;fill:#000000;fill-opacity:1;stroke:#000000;stroke-width:1;stroke-linecap:square;stroke-linejoin:miter;stroke-miterlimit:10;stroke-opacity:1;stroke-dasharray:none;stroke-dashoffset:0;font-family:Dialog"
   inkscape:export-filename="/home/giplt/htdocs/mapmind.org/rain.png"
   inkscape:export-xdpi="115.07"
   inkscape:export-ydpi="115.07">
  <metadata
     id="metadata13">
    <rdf:RDF>
      <cc:Work
         rdf:about="">
        <dc:format>image/svg+xml</dc:format>
        <dc:type
           rdf:resource="http://purl.org/dc/dcmitype/StillImage" />
        <dc:title></dc:title>
      </cc:Work>
    </rdf:RDF>
  </metadata>
  <sodipodi:namedview
     pagecolor="#ffffff"
     bordercolor="#666666"
     borderopacity="1"
     objecttolerance="10"
     gridtolerance="10"
     guidetolerance="10"
     inkscape:pageopacity="0"
     inkscape:pageshadow="2"
     inkscape:window-width="1020"
     inkscape:window-height="729"
     id="namedview11"
     showgrid="false"
     fit-margin-top="0"
     fit-margin-left="0"
     fit-margin-right="0"
     fit-margin-bottom="0"
     inkscape:zoom="1.2685914"
     inkscape:cx="34.633334"
     inkscape:cy="149.63676"
     inkscape:window-x="0"
     inkscape:window-y="18"
     inkscape:window-maximized="0"
     inkscape:current-layer="svg2" />
  <!--Unicode Character 'RAIN' (U+26C6)-->
  <defs
     id="genericDefs" />
  <path
     d="m 209.61082,15.042308 c -2.25761,8.46618 -3.48049,17.026337 -3.66858,25.680487 -0.37621,11.852564 -0.84652,18.813572 -1.41096,20.883106 -2.06953,7.149074 -7.14921,10.723605 -15.23905,10.723605 -11.10001,0 -16.65001,-5.267789 -16.65001,-15.803354 0,-17.12034 12.32287,-30.948279 36.9686,-41.483844 z m 42.61266,84.661002 c -2.25763,8.46604 -3.4805,17.02613 -3.66859,25.6803 -0.37633,11.85254 -0.84671,18.81357 -1.41116,20.88309 -2.06939,7.14907 -7.149,10.7236 -15.23884,10.7236 -11.10001,0 -16.65001,-5.26779 -16.65001,-15.80335 0,-17.1202 12.32286,-30.94808 36.9686,-41.48364 z M 124.95003,15.042308 c -2.25762,8.46618 -3.48049,17.026337 -3.66859,25.680487 -0.37633,11.852564 -0.84666,18.813572 -1.41096,20.883106 -2.06952,7.149074 -7.1492,10.723605 -15.23904,10.723605 -11.099878,0 -16.649814,-5.267789 -16.649814,-15.803354 0,-17.12034 12.322804,-30.948279 36.968404,-41.483844 z m 42.61264,84.661002 c -2.25763,8.46604 -3.48048,17.02613 -3.66858,25.6803 -0.37634,11.85254 -0.84666,18.81357 -1.41096,20.88309 -2.06952,7.14907 -7.1492,10.7236 -15.23905,10.7236 -11.1,0 -16.65,-5.26779 -16.65,-15.80335 0,-17.1202 12.32286,-30.94808 36.96859,-41.48364 z m 45.43459,84.6606 c -2.25763,8.46617 -3.48049,17.02633 -3.66859,25.68049 -0.37633,11.85255 -0.84665,18.81357 -1.41097,20.88309 -2.06952,7.14908 -7.1492,10.72361 -15.23905,10.72361 -11.09986,0 -16.64979,-5.26779 -16.64979,-15.80336 0,-17.12032 12.32279,-30.94827 36.9684,-41.48383 z M 40.289227,15.042308 c -2.257622,8.46618 -3.480483,17.026337 -3.668584,25.680487 -0.376204,11.852564 -0.846524,18.813572 -1.410963,20.883106 -2.06952,7.149074 -7.149201,10.723605 -15.239044,10.723605 -11.1000041,0 -16.6500067,-5.267789 -16.6500067,-15.803354 0,-17.12034 12.3228657,-30.948279 36.9685977,-41.483844 z M 82.901878,99.70331 c -2.257621,8.46604 -3.480484,17.02613 -3.668585,25.6803 -0.376336,11.85254 -0.846724,18.81357 -1.411163,20.88309 -2.069387,7.14907 -7.149,10.7236 -15.238843,10.7236 -11.100006,0 -16.650007,-5.26779 -16.650007,-15.80335 0,-17.1202 12.322865,-30.94808 36.968598,-41.48364 z m 45.434582,84.6606 c -2.25762,8.46617 -3.48048,17.02633 -3.66859,25.68049 -0.3762,11.85255 -0.84652,18.81357 -1.41096,20.88309 -2.06952,7.14908 -7.1492,10.72361 -15.23904,10.72361 -11.100012,0 -16.650013,-5.26779 -16.650013,-15.80336 0,-17.12032 12.322873,-30.94827 36.968603,-41.48383 z m -84.660801,0 c -2.257621,8.46617 -3.480483,17.02633 -3.668584,25.68049 -0.376337,11.85255 -0.846658,18.81357 -1.410964,20.88309 -2.069519,7.14908 -7.149199,10.72361 -15.239043,10.72361 -11.099871,0 -16.6498062,-5.26779 -16.6498062,-15.80336 0,-17.12032 12.3227982,-30.94827 36.9683972,-41.48383 z"
     id="path9"
     inkscape:connector-curvature="0"
     style="fill:#000000;stroke:#000000;stroke-width:4.56470679999999973;stroke-miterlimit:10;stroke-opacity:1;stroke-dasharray:none"
     sodipodi:nodetypes="cccssccccssccccssccccssccccssccccssccccssccccssccccssc" />
</svg>
