<?xml version="1.0" encoding="UTF-8" standalone="no"?>
<!-- Generator: Adobe Illustrator 19.0.0, SVG Export Plug-In . SVG Version: 6.00 Build 0)  -->

<svg
   xmlns:dc="http://purl.org/dc/elements/1.1/"
   xmlns:cc="http://creativecommons.org/ns#"
   xmlns:rdf="http://www.w3.org/1999/02/22-rdf-syntax-ns#"
   xmlns:svg="http://www.w3.org/2000/svg"
   xmlns="http://www.w3.org/2000/svg"
   xmlns:sodipodi="http://sodipodi.sourceforge.net/DTD/sodipodi-0.dtd"
   xmlns:inkscape="http://www.inkscape.org/namespaces/inkscape"
   version="1.1"
   id="Layer_1"
   x="0px"
   y="0px"
   viewBox="0 0 458.624 458.624"
   style="enable-background:new 0 0 458.624 458.624;"
   xml:space="preserve"
   sodipodi:docname="share.svg"
   inkscape:version="0.92.4 (5da689c313, 2019-01-14)"><metadata
   id="metadata43"><rdf:RDF><cc:Work
       rdf:about=""><dc:format>image/svg+xml</dc:format><dc:type
         rdf:resource="http://purl.org/dc/dcmitype/StillImage" /><dc:title></dc:title></cc:Work></rdf:RDF></metadata><defs
   id="defs41" /><sodipodi:namedview
   pagecolor="#ffffff"
   bordercolor="#666666"
   borderopacity="1"
   objecttolerance="10"
   gridtolerance="10"
   guidetolerance="10"
   inkscape:pageopacity="0"
   inkscape:pageshadow="2"
   inkscape:window-width="1020"
   inkscape:window-height="729"
   id="namedview39"
   showgrid="false"
   inkscape:zoom="0.51458276"
   inkscape:cx="229.312"
   inkscape:cy="229.312"
   inkscape:window-x="0"
   inkscape:window-y="18"
   inkscape:window-maximized="0"
   inkscape:current-layer="Layer_1" />
<g
   id="g6">
	<g
   id="g4">
		<path
   d="M339.588,314.529c-14.215,0-27.456,4.133-38.621,11.239l-112.682-78.67c1.809-6.315,2.798-12.976,2.798-19.871    c0-6.896-0.989-13.557-2.798-19.871l109.64-76.547c11.764,8.356,26.133,13.286,41.662,13.286c39.79,0,72.047-32.257,72.047-72.047    C411.634,32.258,379.378,0,339.588,0c-39.79,0-72.047,32.257-72.047,72.047c0,5.255,0.578,10.373,1.646,15.308l-112.424,78.491    c-10.974-6.759-23.892-10.666-37.727-10.666c-39.79,0-72.047,32.257-72.047,72.047s32.256,72.047,72.047,72.047    c13.834,0,26.753-3.907,37.727-10.666l113.292,79.097c-1.629,6.017-2.514,12.34-2.514,18.872c0,39.79,32.257,72.047,72.047,72.047    c39.79,0,72.047-32.257,72.047-72.047C411.635,346.787,379.378,314.529,339.588,314.529z"
   id="path2" />
	</g>
</g>
<g
   id="g8">
</g>
<g
   id="g10">
</g>
<g
   id="g12">
</g>
<g
   id="g14">
</g>
<g
   id="g16">
</g>
<g
   id="g18">
</g>
<g
   id="g20">
</g>
<g
   id="g22">
</g>
<g
   id="g24">
</g>
<g
   id="g26">
</g>
<g
   id="g28">
</g>
<g
   id="g30">
</g>
<g
   id="g32">
</g>
<g
   id="g34">
</g>
<g
   id="g36">
</g>
</svg>